<mxfile host="Electron" modified="2024-12-13T08:41:40.084Z" agent="Mozilla/5.0 (Windows NT 10.0; Win64; x64) AppleWebKit/537.36 (KHTML, like Gecko) draw.io/21.3.7 Chrome/112.0.5615.204 Electron/24.5.0 Safari/537.36" etag="aU_FPj1Z6lm27Yg1dKbL" version="21.3.7" type="device">
  <diagram name="第 1 页" id="Q9tKLadLVuY7ZZAlTKBZ">
    <mxGraphModel dx="2046" dy="722" grid="1" gridSize="10" guides="1" tooltips="1" connect="1" arrows="1" fold="1" page="1" pageScale="1" pageWidth="827" pageHeight="1169" math="0" shadow="0">
      <root>
        <mxCell id="0" />
        <mxCell id="1" parent="0" />
        <mxCell id="RoqFsiGsxQyyz9BpnN4m-1" value="" style="shape=image;verticalLabelPosition=bottom;labelBackgroundColor=default;verticalAlign=top;aspect=fixed;imageAspect=0;image=data:image/png,iVBORw0KGgoAAAANSUhEUgAAA84AAAJfCAYAAACuWI8KAAAAAXNSR0IArs4c6QAAIABJREFUeF7t2bGxbMvWlNH/OQEeIGIOqLiGiD1I4AFWXBQCiU3HqtVzRnbWePJZXVUjt3C/eP/6559//vk3/yNAgAABAgQIECBAgAABAgT+nwL/Es7+MggQIECAAAECBAgQIECAwN8CwtlfBwECBAgQIECAAAECBAgQ+P8ICGd/HgQIECBAgAABAgQIECBAQDj7GyBAgAABAgQIECBAgAABAmcC/h/nMzdfESBAgAABAgQIECBAgMAlAsL5kqE9kwABAgQIECBAgAABAgTOBITzmZuvCBAgQIAAAQIECBAgQOASAeF8ydCeSYAAAQIECBAgQIAAAQJnAsL5zM1XBAgQIECAAAECBAgQIHCJgHC+ZGjPJECAAAECBAgQIECAAIEzAeF85uYrAgQIECBAgAABAgQIELhEQDhfMrRnEvi/Av/9v8IoE/jXf/wvZS+6+zn/49/9p7sBvJ4AAQIECBwK/If/9d8Ov/z8mXD+bORfEOgSEM5de/7bv/2bcO6aVDh37ek1BAgQILAnIJz3rJ1EoF9AONdtLJy7JhXOXXt6DQECBAjsCQjnPWsnEegXEM51GwvnrkmFc9eeXkOAAAECewLCec/aSQT6BYRz3cbCuWtS4dy1p9cQIECAwJ6AcN6zdhKBfgHhXLexcO6aVDh37ek1BAgQILAnIJz3rJ1EoF9AONdtLJy7JhXOXXt6DQECBAjsCQjnPWsnEegXEM51GwvnrkmFc9eeXkOAAAECewLCec/aSQT6BYRz3cbCuWtS4dy1p9cQIECAwJ6AcN6zdhKBfgHhXLexcO6aVDh37ek1BAgQILAnIJz3rJ1EoF9AONdtLJy7JhXOXXt6DQECBAjsCQjnPWsnEegXEM51GwvnrkmFc9eeXkOAAAECewLCec/aSQT6BYRz3cbCuWtS4dy1p9cQIECAwJ6AcN6zdhKBfgHhXLexcO6aVDh37ek1BAgQILAnIJz3rJ1EoF9AONdtLJy7JhXOXXt6DQECBAjsCQjnPWsnEegXEM51GwvnrkmFc9eeXkOAAAECewLCec/aSQT6BYRz3cbCuWtS4dy1p9cQIECAwJ6AcN6zdhKBfgHhXLexcO6aVDh37ek1BAgQILAnIJz3rJ1EoF9AONdtLJy7JhXOXXt6DQECBAjsCQjnPWsnEegXEM51GwvnrkmFc9eeXkOAAAECewLCec/aSQT6BYRz3cbCuWtS4dy1p9cQIECAwJ6AcN6zdhKBfgHhXLexcO6aVDh37ek1BAgQILAnIJz3rJ1EoF9AONdtLJy7JhXOXXt6DQECBAjsCQjnPWsnEegXEM51GwvnrkmFc9eeXkOAAAECewLCec/aSQT6BYRz3cbCuWtS4dy1p9cQIECAwJ6AcN6zdhKBfgHhXLexcO6aVDh37ek1BAgQILAnIJz3rJ1EoF9AONdtLJy7JhXOXXt6DQECBAjsCQjnPWsnEegXEM51GwvnrkmFc9eeXkOAAAECewLCec/aSQT6BYRz3cbCuWtS4dy1p9cQIECAwJ6AcN6zdhKBfgHhXLexcO6aVDh37ek1BAgQILAnIJz3rJ1EoF9AONdtLJy7JhXOXXt6DQECBAjsCQjnPWsnEegXEM51GwvnrkmFc9eeXkOAAAECewLCec/aSQT6BYRz3cbCuWtS4dy1p9cQIECAwJ6AcN6zdhKBfgHhXLexcO6aVDh37ek1BAgQILAnIJz3rJ1EoF9AONdtLJy7JhXOXXt6DQECBAjsCQjnPWsnEegXEM51GwvnrkmFc9eeXkOAAAECewLCec/aSQT6BYRz3cbCuWtS4dy1p9cQIECAwJ6AcN6zdhKBfgHhXLexcO6aVDh37ek1BAgQILAnIJz3rJ1EoF9AONdtLJy7JhXOXXt6DQECBAjsCQjnPWsnEegXEM51GwvnrkmFc9eeXkOAAAECewLCec/aSQT6BYRz3cbCuWtS4dy1p9cQIECAwJ6AcN6zdhKBfgHhXLexcO6aVDh37ek1BAgQILAnIJz3rJ1EoF9AONdtLJy7JhXOXXt6DQECBAjsCQjnPWsnEegXEM51GwvnrkmFc9eeXkOAAAECewLCec/aSQT6BYRz3cbCuWtS4dy1p9cQIECAwJ6AcN6zdhKBfgHhXLexcO6aVDh37ek1BAgQILAnIJz3rJ1EoF9AONdtLJy7JhXOXXt6DQECBAjsCQjnPWsnEegXEM51GwvnrkmFc9eeXkOAAAECewLCec/aSQT6BYRz3cbCuWtS4dy1p9cQIECAwJ6AcN6zdhKBfgHhXLexcO6aVDh37ek1BAgQILAnIJz3rJ1EoF9AONdtLJy7JhXOXXt6DQECBAjsCQjnPWsnEegXEM51GwvnrkmFc9eeXkOAAAECewLCec/aSQT6BYRz3cbCuWtS4dy1p9cQIECAwJ6AcN6zdhKBfgHhXLexcO6aVDh37ek1BAgQILAnIJz3rJ1EoF9AONdtLJy7JhXOXXt6DQECBAjsCQjnPWsnEegXEM51GwvnrkmFc9eeXkOAAAECewLCec/aSQT6BYRz3cbCuWtS4dy1p9cQIECAwJ6AcN6zdhKBfgHhXLexcO6aVDh37ek1BAgQILAnIJz3rJ1EoF9AONdtLJy7JhXOXXt6DQECBAjsCQjnPWsnEegXEM51GwvnrkmFc9eeXkOAAAECewLCec/aSQT6BYRz3cbCuWtS4dy1p9cQIECAwJ6AcN6zdhKBfgHhXLexcO6aVDh37ek1BAgQILAnIJz3rJ1EoF9AONdtLJy7JhXOXXt6DQECBAjsCQjnPWsnEegXEM51GwvnrkmFc9eeXkOAAAECewLCec/aSQT6BYRz3cbCuWtS4dy1p9cQIECAwJ6AcN6zdhKBfgHhXLexcO6aVDh37ek1BAgQILAnIJz3rJ1EoF9AONdtLJy7JhXOXXt6DQECBAjsCQjnPWsnEegXEM51GwvnrkmFc9eeXkOAAAECewLCec/aSQT6BYRz3cbCuWtS4dy1p9cQIECAwJ6AcN6zdhKBfgHhXLexcO6aVDh37ek1BAgQILAnIJz3rJ1EoF9AONdtLJy7JhXOXXt6DQECBAjsCQjnPWsnEegXEM51GwvnrkmFc9eeXkOAAAECewLCec/aSQT6BYRz3cbCuWtS4dy1p9cQIECAwJ6AcN6zdhKBfgHhXLexcO6aVDh37ek1BAgQILAnIJz3rJ1EoF9AONdtLJy7JhXOXXt6DQECBAjsCQjnPWsnEegXEM51GwvnrkmFc9eeXkOAAAECewLCec/aSQT6BYRz3cbCuWtS4dy1p9cQIECAwJ6AcN6zdhKBfgHhXLexcO6aVDh37ek1BAgQILAnIJz3rJ1EoF9AONdtLJy7JhXOXXt6DQECBAjsCQjnPWsnEegXEM51GwvnrkmFc9eeXkOAAAECewLCec/aSQT6BYRz3cbCuWtS4dy1p9cQIECAwJ6AcN6zdhKBfgHhXLexcO6aVDh37ek1BAgQILAnIJz3rJ1EoF9AONdtLJy7JhXOXXt6DQECBAjsCQjnPWsnEegXEM51GwvnrkmFc9eeXkOAAAECewLCec/aSQT6BYRz3cbCuWtS4dy1p9cQIECAwJ6AcN6zdhKBfgHhXLexcO6aVDh37ek1BAgQILAnIJz3rJ1EoF9AONdtLJy7JhXOXXt6DQECBAjsCQjnPWsnEegXEM51GwvnrkmFc9eeXkOAAAECewLCec/aSQT6BYRz3cbCuWtS4dy1p9cQIECAwJ6AcN6zdhKBfgHhXLexcO6aVDh37ek1BAgQILAnIJz3rJ1EoF9AONdtLJy7JhXOXXt6DQECBAjsCQjnPWsnEegXEM51GwvnrkmFc9eeXkOAAAECewLCec/aSQT6BYRz3cbCuWtS4dy1p9cQIECAwJ6AcN6zdhKBfgHhXLexcO6aVDh37ek1BAgQILAnIJz3rJ1EoF9AONdtLJy7JhXOXXt6DQECBAjsCQjnPWsnEegXEM51GwvnrkmFc9eeXkOAAAECewLCec/aSQT6BYRz3cbCuWtS4dy1p9cQIECAwJ6AcN6zdhKBfgHhXLexcO6aVDh37ek1BAgQILAnIJz3rJ1EoF9AONdtLJy7JhXOXXt6DQECBAjsCQjnPWsnEegXEM51GwvnrkmFc9eeXkOAAAECewLCec/aSQT6BYRz3cbCuWtS4dy1p9cQIECAwJ6AcN6zdhKBfgHhXLexcO6aVDh37ek1BAgQILAnIJz3rJ1EoF9AONdtLJy7JhXOXXt6DQECBAjsCQjnPWsnEegXEM51GwvnrkmFc9eeXkOAAAECewLCec/aSQT6BYRz3cbCuWtS4dy1p9cQIECAwJ6AcN6zdhKBfgHhXLexcO6aVDh37ek1BAgQILAnIJz3rJ1EoF9AONdtLJy7JhXOXXt6DQECBAjsCQjnPWsnEegXEM51GwvnrkmFc9eeXkOAAAECewLCec/aSQT6BYRz3cbCuWtS4dy1p9cQIECAwJ6AcN6zdhKBfgHhXLexcO6aVDh37ek1BAgQILAnIJz3rJ1EoF9AONdtLJy7JhXOXXt6DQECBAjsCQjnPWsnEegXEM51GwvnrkmFc9eeXkOAAAECewLCec/aSQT6BYRz3cbCuWtS4dy1p9cQIECAwJ6AcN6zdhKBfgHhXLexcO6aVDh37ek1BAgQILAnIJz3rJ1EgACBnxP4n//+P//cnV2YwC0Ck/8Rd4uhdxIgQCBB4F///PPPPwkXcQcCBAgQOBMQzmduviKwISCcN5SdQYAAgXkB4Txv7AQCBAiMCgjnUV4/TuCVgHB+xedjAgQIxAgI55gpXIQAAQJnAsL5zM1XBDYEhPOGsjMIECAwLyCc542dQIAAgVEB4TzK68cJvBIQzq/4fEyAAIEYAeEcM4WLECBA4ExAOJ+5+YrAhoBw3lB2BgECBOYFhPO8sRMIECAwKiCcR3n9OIFXAsL5FZ+PCRAgECMgnGOmcBECBAicCQjnMzdfEdgQEM4bys4gQIDAvIBwnjd2AgECBEYFhPMorx8n8EpAOL/i8zEBAgRiBIRzzBQuQoAAgTMB4Xzm5isCGwLCeUPZGQQIEJgXEM7zxk4gQIDAqIBwHuX14wReCQjnV3w+JkCAQIyAcI6ZwkUIECBwJiCcz9x8RWBDQDhvKDuDAAEC8wLCed7YCQQIEBgVEM6jvH6cwCsB4fyKz8cECBCIERDOMVO4CAECBM4EhPOZm68IbAgI5w1lZxAgQGBeQDjPGzuBAAECowLCeZTXjxN4JSCcX/H5mAABAjECwjlmChchQIDAmYBwPnPzFYENAeG8oewMAgQIzAsI53ljJxAgQGBUQDiP8vpxAq8EhPMrPh8TIEAgRkA4x0zhIgQIEDgTEM5nbr4isCEgnDeUnUGAAIF5AeE8b+wEAgQIjAoI51FeP07glYBwfsXnYwIECMQICOeYKVyEAAECZwLC+czNVwQ2BITzhrIzCBAgMC8gnOeNnUCAAIFRAeE8yuvHCbwSEM6v+HxMgACBGAHhHDOFixAgQOBMQDifufmKwIaAcN5QdgYBAgTmBYTzvLETCBAgMCognEd5/TiBVwLC+RWfjwkQIBAjIJxjpnARAgQInAkI5zM3XxHYEBDOG8rOIECAwLyAcJ43dgIBAgRGBYTzKK8fJ/BKQDi/4vMxAQIEYgSEc8wULkKAAIEzAeF85uYrAhsCwnlD2RkECBCYFxDO88ZOIECAwKiAcB7l9eMEXgkI51d8PiZAgECMgHCOmcJFCBAgcCYgnM/cfEVgQ0A4byg7gwABAvMCwnne2AkECBAYFRDOo7x+nMArAeH8is/HBAgQiBEQzjFTuAgBAgTOBITzmZuvCGwICOcNZWcQIEBgXkA4zxs7gQABAqMCwnmU148TeCUgnF/x+ZgAAQIxAsI5ZgoXIUCAwJmAcD5z8xWBDQHhvKHsDAIECMwLCOd5YycQIEBgVEA4j/L6cQKvBITzKz4fEyBAIEZAOMdM4SIECBA4ExDOZ26+IrAhIJw3lJ1BgACBeQHhPG/sBAIECIwKCOdRXj9O4JWAcH7F52MCBAjECAjnmClchAABAmcCwvnMzVcENgSE84ayMwgQIDAvIJznjZ1AgACBUQHhPMrrxwm8EhDOr/h8TIAAgRgB4RwzhYsQIEDgTEA4n7n5isCGgHDeUHYGAQIE5gWE87yxEwgQIDAqIJxHef04gVcCwvkVn48JECAQIyCcY6ZwEQIECJwJCOczN18R2BAQzhvKziBAgMC8gHCeN3YCAQIERgWE8yivHyfwSkA4v+LzMQECBGIEhHPMFC5CgACBMwHhfObmKwIbAsJ5Q9kZBAgQmBcQzvPGTiBAgMCogHAe5fXjBF4JCOdXfD4mQIBAjIBwjpnCRQgQIHAmIJzP3HxFYENAOG8oO4MAAQLzAsJ53tgJBAgQGBUQzqO8fpzAKwHh/IrPxwQIEIgREM4xU7gIAQIEzgSE85mbrwhsCAjnDWVnECBAYF5AOM8bO4EAAQKjAsJ5lNePE3glIJxf8fmYAAECMQLCOWYKFyFAgMCZgHA+c/MVgQ0B4byh7AwCBAjMCwjneWMnECBAYFRAOI/y+nECrwSE8ys+HxMgQCBGQDjHTOEiBAgQOBMQzmduviKwISCcN5SdQYAAgXkB4Txv7AQCBAiMCgjnUV4/TuCVgHB+xedjAgQIxAgI55gpXIQAAQJnAsL5zM1XBDYEhPOGsjMIECAwLyCc542dQIAAgVEB4TzK68cJvBIQzq/4fEyAAIEYAeEcM4WLECBA4ExAOJ+5+YrAhoBw3lB2BgECBOYFhPO8sRMIECAwKiCcR3n9OIFXAsL5FZ+PCRAgECMgnGOmcBECBAicCQjnMzdfEdgQEM4bys4gQIDAvIBwnjd2AgECBEYFhPMorx8n8EpAOL/i8zEBAgRiBIRzzBQuQoAAgTMB4Xzm5isCGwLCeUPZGQQIEJgXEM7zxk4gQIDAqIBwHuX14wReCQjnV3w+JkCAQIyAcI6ZwkUIECBwJiCcz9x8RWBDQDhvKDuDAAEC8wLCed7YCQQIEBgVEM6jvH6cwCsB4fyKz8cECBCIERDOMVO4CAECBM4EhPOZm68IbAgI5w1lZxAgQGBeQDjPGzuBAAECowLCeZTXjxN4JSCcX/H5mAABAjECwjlmChchQIDAmYBwPnPzFYENAeG8oewMAgQIzAsI53ljJxAgQGBUQDiP8vpxAq8EhPMrPh8TIEAgRkA4x0zhIgQIEDgTEM5nbr4isCEgnDeUnUGAAIF5AeE8b+wEAgQIjAoI51FeP07glYBwfsXnYwIECMQICOeYKVyEAAECZwLC+czNVwQ2BITzhrIzCBAgMC8gnOeNnUCAAIFRAeE8yuvHCbwSEM6v+HxMgACBGAHhHDOFixAgQOBMQDifufmKwIaAcN5QdgYBAgTmBYTzvLETCBAgMCognEd5/TiBVwLC+RWfjwkQIBAjIJxjpnARAgQInAkI5zM3XxHYEBDOG8rOIECAwLyAcJ43dgIBAgRGBYTzKK8fJ/BKQDi/4vMxAQIEYgSEc8wULkKAAIEzAeF85uYrAhsCwnlD2RkECBCYFxDO88ZOIECAwKiAcB7l9eMEXgkI51d8PiZAgECMgHCOmcJFCBAgcCYgnM/cfEVgQ0A4byg7gwABAvMCwnne2AkECBAYFRDOo7x+nMArAeH8is/HBAgQiBEQzjFTuAgBAgTOBITzmZuvCGwICOcNZWcQIEBgXkA4zxs7gQABAqMCwnmU148TeCUgnF/x+ZgAAQIxAsI5ZgoXIUCAwJmAcD5z8xWBDQHhvKHsDAIECMwLCOd5YycQIEBgVEA4j/L6cQKvBITzKz4fEyBAIEZAOMdM4SIECBA4ExDOZ26+IrAhIJw3lJ1BgACBeQHhPG/sBAIECIwKCOdRXj9O4JWAcH7F52MCBAjECAjnmClchAABAmcCwvnMzVcENgSE84ayMwgQIDAvIJznjZ1AgACBUQHhPMrrxwm8EhDOr/h8TIAAgRgB4RwzhYsQIEDgTEA4n7n5isCGgHDeUHYGAQIE5gWE87yxEwgQIDAqIJxHef04gVcCwvkVn48JECAQIyCcY6ZwEQIECJwJCOczN18R2BAQzhvKziBAgMC8gHCeN3YCAQIERgWE8yivHyfwSkA4v+LzMQECBGIEhHPMFC5CgACBMwHhfObmKwIbAsJ5Q9kZBAgQmBcQzvPGTiBAgMCogHAe5fXjBF4JCOdXfD4mQIBAjIBwjpnCRQgQIHAmIJzP3HxFYENAOG8oO4MAAQLzAsJ53tgJBAgQGBUQzqO8fpzAKwHh/IrPxwQIEIgREM4xU7gIAQIEzgSE85mbrwhsCAjnDWVnECBAYF5AOM8bO4EAAQKjAsJ5lNePE3glIJxf8fmYAAECMQLCOWYKFyFAgMCZgHA+c/MVgQ0B4byh7AwCBAjMCwjneWMnECBAYFRAOI/y+nECrwSE8ys+HxMgQCBGQDjHTOEiBAgQOBMQzmduviKwISCcN5SdQYAAgXkB4Txv7AQCBAiMCgjnUV4/TuCVgHB+xedjAgQIxAgI55gpXIQAAQJnAsL5zM1XBDYEhPOGsjMIECAwLyCc542dQIAAgVEB4TzK68cJvBIQzq/4fEyAAIEYAeEcM4WLECBA4ExAOJ+5+YrAhoBw3lB2BgECBOYFhPO8sRMIECAwKiCcR3n9OIFXAsL5FZ+PCRAgECMgnGOmcBECBAicCQjnMzdfEdgQEM4bys4gQIDAvIBwnjd2AgECBEYFhPMorx8n8EpAOL/i8zEBAgRiBIRzzBQuQoAAgTMB4Xzm5isCGwLCeUPZGQQIEJgXEM7zxk4gQIDAqIBwHuX14wReCQjnV3w+JkCAQIyAcI6ZwkUIECBwJiCcz9x8RWBDQDhvKDuDAAEC8wLCed7YCQQIEBgVEM6jvH6cwCsB4fyKz8cECBCIERDOMVO4CAECBM4EhPOZm68IbAgI5w1lZxAgQGBeQDjPGzuBAAECowLCeZTXjxN4JSCcX/H5mAABAjECwjlmChchQIDAmYBwPnPzFYENAeG8oewMAgQIzAsI53ljJxAgQGBUQDiP8vpxAq8EhPMrPh8TIEAgRkA4x0zhIgQIEDgTEM5nbr4isCEgnDeUnUGAAIF5AeE8b+wEAgQIjAoI51FeP07glYBwfsXnYwIECMQICOeYKVyEAAECZwLC+czNVwQ2BITzhrIzCBAgMC8gnOeNnUAgSkBkRc3xlcv4D/OvMPoRAgQIECBAgMCfAsLZHweBywSEc9/gwrlvUy8iQIAAAQIEsgSEc9YebkNgXEA4jxOvHyCc18kdSIAAAQIECFwmIJwvG9xzCQjnvr8B4dy3qRcRIECAAAECWQLCOWsPtyEwLiCcx4nXDxDO6+QOJECAAAECBC4TEM6XDe65BIRz39+AcO7b1IsIECBAgACBLAHhnLWH2xAYFxDO48TrBwjndXIHEiBAgAABApcJCOfLBvdcAsK5729AOPdt6kUECBAgQIBAloBwztrDbQiMCwjnceL1A4TzOrkDCRAgQIAAgcsEhPNlg3suAeHc9zcgnPs29SICBAgQIEAgS0A4Z+3hNgTGBYTzOPH6AcJ5ndyBBAgQIECAwGUCwvmywT2XgHDu+xsQzn2behEBAgQIECCQJSCcs/ZwGwLjAsJ5nHj9AOG8Tu5AAgQIECBA4DIB4XzZ4J5LQDj3/Q0I575NvYgAAQIECBDIEhDOWXu4DYFxAeE8Trx+gHBeJ3cgAQIECBAgcJmAcL5scM8lIJz7/gaEc9+mXkSAAAECBAhkCQjnrD3chsC4gHAeJ14/QDivkzuQAAECBAgQuExAOF82uOcSEM59fwPCuW9TLyJAgAABAgSyBIRz1h5uQ2BcQDiPE68fIJzXyR1IgAABAgQIXCYgnC8b3HMJCOe+vwHh3LepFxEgQIAAAQJZAsI5aw+3ITAuIJzHidcPEM7r5A4kQIAAAQIELhMQzpcN7rkEhHPf34Bw7tvUiwgQIECAAIEsAeGctYfbEBgXEM7jxOsHCOd1cgcSIECAAAEClwkI58sG91wCwrnvb0A4923qRQQIECBAgECWgHDO2sNtCIwLCOdx4vUDhPM6uQMJECBAgACBywSE82WDey4B4dz3NyCc+zb1IgIECBAgQCBLQDhn7eE2BMYFhPM48foBwnmd3IEECBAgQIDAZQLC+bLBPZeAcO77GxDOfZt6EQECBAgQIJAlIJyz9nAbAuMCwnmceP0A4bxO7kACBAgQIEDgMgHhfNngnktAOPf9DQjnvk29iAABAgQIEMgSEM5Ze7gNgXEB4TxOvH6AcF4ndyABAgQIECBwmYBwvmxwzyUgnPv+BoRz36ZeRIAAAQIECGQJCOesPdyGwLiAcB4nXj9AOK+TO5AAAQIECBC4TEA4Xza45xIQzn1/A8K5b1MvIkCAAAECBLIEhHPWHm5DYFxAOI8Trx8gnNfJHUiAAAECBAhcJiCcLxvccwkI576/AeHct6kXESBAgAABAlkCwjlrD7chMC4gnMeJ1w8QzuvkDiRAgAABAgQuExDOlw3uuQSEc9/fgHDu29SLCBAgQIAAgSwB4Zy1h9sQGBcQzuPE6wcI53VyBxIgQIAAAQKXCQjnywb3XALCue9vQDj3bepFBAgQIECAQJaAcM7aw20IjAsI53Hi9QOE8zq5AwkQIECAAIHLBITzZYN7LgHh3Pc3IJz7NvUiAgQIECBAIEtAOGft4TYExgWE8zjx+gHCeZ3cgQQIECBAgMBlAsL5ssE9l4Bw7vsbEM59m3oRAQIECBAgkCUgnLP2cBsC4wLCeZx4/QDhvE7uQAIECBAgQOAyAeF82eCeS0A49/0NCOe+Tb2IAAECBAgQyBIQzll7uA2BcQHhPE68foBwXid3IAECBAgQIHCZgHC+bHDPJSCc+/7/YR8rAAAgAElEQVQGhHPfpl5EgAABAgQIZAkI56w93IbAuIBwHideP0A4r5M7kAABAgQIELhMQDhfNrjnEhDOfX8DwrlvUy8iQIAAAQIEsgSEc9YebkNgXEA4jxOvHyCc18kdSIAAAQIECFwmIJwvG9xzCQjnvr8B4dy3qRcRIECAAAECWQLCOWsPtyEwLiCcx4nXDxDO6+QOJECAAAECBC4TEM6XDe65BIRz39+AcO7b1IsIECBAgACBLAHhnLWH2xAYFxDO48TrBwjndXIHEiBAgAABApcJCOfLBvdcAsK5729AOPdt6kUECBAgQIBAloBwztrDbQiMCwjnceL1A4TzOrkDCRAgQIAAgcsEhPNlg3suAeHc9zcgnPs29SICBAgQIEAgS0A4Z+3hNgTGBYTzOPH6AcJ5ndyBBAgQIECAwGUCwvmywT2XgHDu+xsQzn2behEBAgQIECCQJSCcs/ZwGwLjAsJ5nHj9AOG8Tu5AAgQIECBA4DIB4XzZ4J5LQDj3/Q0I575NvYgAAQIECBDIEhDOWXu4DYFxAeE8Trx+gHBeJ3cgAQIECBAgcJmAcL5scM8lIJz7/gaEc9+mXkSAAAECBAhkCQjnrD3chsC4gHAeJ14/QDivkzuQAAECBAgQuExAOF82uOcSEM59fwPCuW9TLyJAgAABAgSyBIRz1h5uQ2BcQDiPE68fIJzXyR1IgAABAgQIXCYgnC8b3HMJCOe+vwHh3LepFxEgQIAAAQJZAsI5aw+3ITAuIJzHidcPEM7r5A4kQIAAAQIELhMQzpcN7rkEhHPf34Bw7tvUiwgQIECAAIEsAeGctYfbEBgXEM7jxOsHCOd1cgcSIECAAAEClwkI58sG91wCwrnvb0A4923qRQQIECBAgECWgHDO2sNtCIwLCOdx4vUDhPM6uQMJECBAgACBywSE82WDey4B4dz3NyCc+zb1IgIECBAgQCBLQDhn7eE2BMYFhPM48foBwnmd3IEECBAgQIDAZQLC+bLBPZeAcO77GxDOfZt6EQECBAgQIJAlIJyz9nAbAuMCwnmceP0A4bxO7kACBAgQIEDgMgHhfNngnktAOPf9DQjnvk29iAABAgQIEMgSEM5Ze7gNgXEB4TxOvH6AcF4ndyABAgQIECBwmYBwvmxwzyUgnPv+BoRz36ZeRIAAAQIECGQJCOesPdyGwLiAcB4nXj9AOK+TO5AAAQIECBC4TEA4Xza45xIQzn1/A8K5b1MvIkCAAAECBLIEhHPWHm5DYFxAOI8Trx8gnNfJHUiAAAECBAhcJiCcLxvccwkI576/AeHct6kXESBAgAABAlkCwjlrD7chMC4gnMeJ1w8QzuvkDiRAgAABAgQuExDOlw3uuQSEc9/fgHDu29SLCBAgQIAAgSwB4Zy1h9sQGBcQzuPE6wcI53VyBxIgQIAAAQKXCQjnywb3XALCue9vQDj3bepFBAgQIECAQJaAcM7aw20IjAsI53Hi9QOE8zq5AwkQIECAAIHLBITzZYN7LgHh3Pc3IJz7NvUiAgQIECBAIEtAOGft4TYExgWE8zjx+gHCeZ3cgQQIECBAgMBlAsL5ssE9l4Bw7vsbEM59m3oRAQIECBAgkCUgnLP2cBsC4wLCeZx4/QDhvE7uQAIECBAgQOAyAeF82eCeS0A49/0NCOe+Tb2IAAECBAgQyBIQzll7uA2BcQHhPE68foBwXid3IAECBAgQIHCZgHC+bHDPJSCc+/4GhHPfpl5EgAABAgQIZAkI56w93IbAuIBwHideP0A4r5M7kAABAgQIELhMQDhfNrjnEhDOfX8DwrlvUy8iQIAAAQIEsgSEc9YebkNgXEA4jxOvHyCc18kdSIAAAQIECFwmIJwvG9xzCQjnvr8B4dy3qRcRIECAAAECWQLCOWsPtyEwLiCcx4nXDxDO6+QOJECAAAECBC4TEM6XDe65BIRz39+AcO7b1IsIECBAgACBLAHhnLWH2xAYFxDO48TrBwjndXIHEiBAgAABApcJCOfLBvdcAsK5729AOPdt6kUECBAgQIBAloBwztrDbQiMCwjnceL1A4TzOrkDCRAgQIAAgcsEhPNlg3suAeHc9zcgnPs29SICBAgQIEAgS0A4Z+3hNgTGBYTzOPH6AcJ5ndyBBAgQIECAwGUCwvmywT2XgHDu+xsQzn2behEBAgQIECCQJSCcs/ZwGwLjAsJ5nHj9AOG8Tu5AAgQIECBA4DIB4XzZ4J5LQDj3/Q0I575NvYgAAQIECBDIEhDOWXu4DYFxAeE8Trx+gHBeJ3cgAQIECBAgcJmAcL5scM8lIJz7/gaEc9+mXkSAAAECBAhkCQjnrD3chsC4gHAeJ14/QDivkzuQAAECBAgQuExAOF82uOcSEM59fwPCuW9TLyJAgAABAgSyBIRz1h5uQ2BcQDiPE68fIJzXyR1IgAABAgQIXCYgnC8b3HMJCOe+vwHh3LepFxEgQIAAAQJZAsI5a4/I2wityFmOLyWyjul8SIAAAQIECBAgcKmAcL50+CfPFs5PtPL/rXDO38gNCRAgQIAAAQIEsgSEc9YekbcRzpGzHF9KOB/T+ZAAAQIECBAgQOBSAeF86fBPni2cn2jl/1vhnL+RGxIgQIAAAQIECGQJCOesPSJvI5wjZzm+lHA+pvMhAQIECBAgQIDApQLC+dLhnzxbOD/Ryv+3wjl/IzckQIAAAQIECBDIEhDOWXtE3kY4R85yfCnhfEznQwIECBAgQIAAgUsFhPOlwz95tnB+opX/b4Vz/kZuSIAAAQIECBAgkCUgnLP2iLyNcI6c5fhSwvmYzocECBAgQIAAAQKXCgjnS4d/8mzh/EQr/98K5/yN3JAAAQIECBAgQCBLQDhn7RF5G+EcOcvxpYTzMZ0PCRAgQIAAAQIELhUQzpcO/+TZwvmJVv6/Fc75G7khAQIECBAgQIBAloBwztoj8jbCOXKW40sJ52M6HxIgQIAAAQIECFwqIJwvHf7Js4XzE638fyuc8zdyQwIECBAgQIAAgSwB4Zy1R+RthHPkLMeXEs7HdD4kQIAAAQIECBC4VEA4Xzr8k2cL5yda+f9WOOdv5IYECBAgQIAAAQJZAsI5a4/I2wjnyFmOLyWcj+l8SIAAAQIECBAgcKmAcL50+CfPFs5PtPL/rXDO38gNCRAgQIAAAQIEsgSEc9YekbcRzpGzHF9KOB/T+ZAAAQIECBAgQOBSAeF86fBPni2cn2jl/1vhnL+RGxIgQIAAAQIECGQJCOesPSJvI5wjZzm+lHA+pvMhAQIECBAgQIDApQLC+dLhnzxbOD/Ryv+3wjl/IzckQIAAAQIECBDIEhDOWXtE3kY4R85yfCnhfEznQwIECBAgQIAAgUsFhPOlwz95tnB+opX/b4Vz/kZuSIAAAQIECBAgkCUgnLP2iLyNcI6c5fhSwvmYzocECBAgQIAAAQKXCgjnS4d/8mzh/EQr/98K5/yN3JAAAQIECBAgQCBLQDhn7RF5G+EcOcvxpYTzMZ0PCRAgQIAAAQIELhUQzpcO/+TZwvmJVv6/Fc75G7khAQIECBAgQIBAloBwztoj8jbCOXKW40sJ52M6HxIgQIAAAQIECFwqIJwvHf7Js4XzE638fyuc8zdyQwIECBAgQIAAgSwB4Zy1R+RthHPkLMeXEs7HdD4kQIAAAQIECBC4VEA4Xzr8k2cL5yda+f9WOOdv5IYECBAgQIAAAQJZAsI5a4/I2wjnyFmOLyWcj+l8SIAAAQIECBAgcKmAcL50+CfPFs5PtPL/rXDO38gNCRAgQIAAAQIEsgSEc9YekbcRzpGzHF9KOB/T+ZAAAQIECBAgQOBSAeF86fBPni2cn2jl/1vhnL+RGxIgQIAAAQIECGQJCOesPSJvI5wjZzm+lHA+pvMhAQIECBAgQIDApQLC+dLhnzxbOD/Ryv+3wjl/IzckQIAAAQIECBDIEhDOWXtE3kY4R85yfCnhfEznQwIECBAgQIAAgUsFhPOlwz95tnB+opX/b4Vz/kZuSIAAAQIECBAgkCUgnLP2iLyNcI6c5fhSwvmYzocECBAgQIAAAQKXCgjnS4d/8mzh/EQr/98K5/yN3JAAAQIECBAgQCBLQDhn7RF5G+EcOcvxpYTzMZ0PCRAgQIAAAQIELhUQzpcO/+TZwvmJVv6/Fc75G7khAQIECBAgQIBAloBwztoj8jbCOXKW40sJ52M6HxIgQIAAAQIECFwqIJwvHf7Js4XzE638fyuc8zdyQwIECBAgQIAAgSwB4Zy1R+RthHPkLMeXEs7HdD4kQIAAAQIECBC4VEA4Xzr8k2cL5yda+f9WOOdv5IYECBAgQIAAAQJZAsI5a4/I2wjnyFmOLyWcj+l8SIAAAQIECBAgcKmAcL50+CfPFs5PtPL/rXDO38gNCRAgQIAAAQIEsgSEc9YekbcRzpGzHF9KOB/T+ZAAAQIECBAgQOBSAeF86fBPni2cn2jl/1vhnL+RGxIgQIAAAQIECGQJCOesPSJvI5wjZzm+lHA+pvMhAQIECBAgQIDApQLC+dLhnzxbOD/Ryv+3wjl/IzckQIAAAQIECBDIEhDOWXtE3kY4R85yfCnhfEznQwIECBAgQIAAgUsFhPOlwz95tnB+opX/b4Vz/kZuSIAAAQIECBAgkCUgnLP2iLyNcI6c5fhSwvmYzocECBAgQIAAAQKXCgjnS4d/8mzh/EQr/98K5/yN3JAAAQIECBAgQCBLQDhn7RF5G+EcOcvxpYTzMZ0PCRAgQIAAAQIELhUQzpcO/+TZwvmJVv6/Fc75G7khAQIECBAgQIBAloBwztoj8jbCOXKW40sJ52M6HxIgQIAAAQIECFwqIJwvHf7Js4XzE638fyuc8zdyQwIECBAgQIAAgSwB4Zy1R+RthHPkLMeXEs7HdD4kQIAAAQIECBC4VEA4Xzr8k2cL5yda+f9WOOdv5IYECBAgQIAAAQJZAsI5a4/I2wjnyFmOLyWcj+l8SIAAAQIECBAgcKmAcL50+CfPFs5PtPL/rXDO38gNCRAgQIAAAQIEsgSEc9YekbcRzpGzHF9KOB/T+ZAAAQIECBAgQOBSAeF86fBPni2cn2jl/1vhnL+RGxIgQIAAAQIECGQJCOesPSJvI5wjZzm+lHA+pvMhAQIECBAgQIDApQLC+dLhnzxbOD/Ryv+3wjl/IzckQIAAAQIECBDIEhDOWXtE3kY4R85yfCnhfEznQwIECBAgQIAAgUsFhPOlwz95tnB+opX/b4Vz/kZuSIAAAQIECBAgkCUgnLP2iLyNcI6c5fhSwvmYzocECBAgQIAAAQKXCgjnS4d/8mzh/EQr/98K5/yN3JAAAQIECBAgQCBLQDhn7RF5G+EcOcvxpYTzMZ0PCRAgQIAAAQIELhUQzpcO/+TZwvmJVv6/Fc75G7khAQIECBAgQIBAloBwztoj8jbCOXKW40sJ52M6HxIgQIAAAQIECFwqIJwvHf7Js4XzE638fyuc8zdyQwIECBAgQIAAgSwB4Zy1R+RthHPkLMeXEs7HdD4kQIAAAQIECBC4VEA4Xzr8k2cL5yda+f9WOOdv5IYECBAgQIAAAQJZAsI5a4/I2wjnyFmOLyWcj+l8SIAAAQIECBAgcKmAcL50+CfPFs5PtPL/rXDO38gNCRAgQIAAAQIEsgSEc9YekbcRzpGzHF9KOB/T+ZAAAQIECBAgQOBSAeF86fBPni2cn2jl/1vhnL+RGxIgQIAAAQIECGQJCOesPSJvI5wjZzm+lHA+pvMhAQIECBAgQIDApQLC+dLhnzxbOD/Ryv+3wjl/IzckQIAAAQIECBDIEhDOWXtE3kY4R85yfCnhfEznQwIECBAgQIAAgUsFhPOlwz95tnB+opX/b4Vz/kZuSIAAAQIECBAgkCUgnLP2iLyNcI6c5fhSwvmYzocECBAgQIAAAQKXCgjnS4d/8mzh/EQr/98K5/yN3JAAAQIECBAgQCBLQDhn7RF5G+EcOcvxpYTzMZ0PCRAgQIAAAQIELhUQzpcO/+TZwvmJVv6/Fc75G7khAQIECBAgQIBAloBwztoj8jbCOXKW40sJ52M6HxIgQIAAAQIECFwqIJwvHf7Js4XzE638fyuc8zdyQwIECBAgQIAAgSwB4Zy1R+RthHPkLMeXEs7HdD4kQIAAAQIECBC4VEA4Xzr8k2cL5yda+f9WOOdv5IYECBAgQIAAAQJZAsI5a4/I2wjnyFmOLyWcj+l8SIAAAQIECBAgcKmAcL50+CfPFs5PtPL/rXDO38gNCRAgQIAAAQIEsgSEc9YekbcRzpGzHF9KOB/T+ZAAAQIECBAgQOBSAeF86fBPni2cn2jl/1vhnL+RGxIgQIAAAQIECGQJCOesPSJvI5wjZzm+lHA+pvMhAQIECBAgQIDApQLC+dLhnzxbOD/Ryv+3wjl/IzckQIAAAQIECBDIEhDOWXtE3kY4R85yfCnhfEznQwIECBAgQIAAgUsFhPOlwz95tnB+opX/b4Vz/kZuSIAAAQIECBAgkCUgnLP2iLyNcI6c5fhSwvmYzocECBAgQIAAAQKXCgjnS4d/8mzh/EQr/98K5/yN3JAAAQIECBAgQCBLQDhn7RF5G+EcOcvxpYTzMZ0PCRAgQIAAAQIELhUQzpcO/+TZwvmJVv6/Fc75G7khAQIECBAgQIBAloBwztoj8jbCOXKW40sJ52M6HxIgQIAAAQIECFwqIJwvHf7Js4XzE638fyuc8zdyQwIECBAgQIAAgSwB4Zy1R+RthHPkLMeXEs7HdD4kQIAAAQIECBC4VEA4Xzr8k2cL5yda+f9WOOdv5IYECBAgQIAAAQJZAsI5a4/I2wjnyFmOLyWcj+l8SIAAAQIECBAgcKmAcL50+CfPFs5PtPL/rXDO38gNCRAgQIAAAQIEsgSEc9YekbcRzpGzHF9KOB/T+ZAAAQIECBAgQOBSgZFwFlpdf01Cq2tPryFAgAABAgQIECBA4JmAcH7mdeW/Fs5Xzu7RBAgQIECAAAECBAj8HwHh7E/ho4Bw/kjkHxAgQIAAAQIECBAgUCwgnIvH/dbThPO3JP0OAQIECBAgQIAAAQK/KCCcf3G15TsL52VwxxEgQIAAAQIECBAgECUgnKPmyLyMcM7cxa0IECBAgAABAgQIENgREM47zj99inD+6flcngABAgQIECBAgACBlwLC+SXgDZ8L5xtW9kYCBAgQIECAAAECBP4SEM7+Nj4KCOePRP4BAQIECBAgQIAAAQLFAsK5eNxvPU04f0vS7xAgQIAAAQIECBAg8IsCwvkXV1u+s3BeBnccAQIECBAgQIAAAQJRAsI5ao7MywjnzF3cigABAgQIECBAgACBHQHhvOP806cI55+ez+UJECBAgAABAgQIEHgpIJxfAt7wuXC+YWVvJECAAAECBAgQIEDgLwHh7G/jo4Bw/kjkHxAgQIAAAQIECBAgUCwgnIvH/dbThPO3JP0OAQIECBAgQIAAAQK/KCCcf3G15TsL52VwxxEgQIAAAQIECBAgECUgnKPmyLyMcM7cxa0IECBAgAABAgQIENgREM47zj99inD+6flcngABAgQIECBAgACBlwLC+SXgDZ8L5xtW9kYCBAgQIECAAAECBP4SEM7+Nj4KCOePRP4BAQIECBAgQIAAAQLFAsK5eNxvPU04f0vS7xAgQIAAAQIECBAg8IsCwvkXV1u+s3BeBnccAQIECBAgQIAAAQJRAsI5ao7MywjnzF3cigABAgQIECBAgACBHQHhvOP806cI55+ez+UJECBAgAABAgQIEHgpIJxfAt7wuXC+YWVvJECAAAECBAgQIEDgLwHh7G/jo4Bw/kjkHxAgQIAAAQIECBAgUCwgnIvH/dbThPO3JP0OAQIECBAgQIAAAQK/KCCcf3G15TsL52VwxxEgQIAAAQIECBAgECUgnKPmyLyMcM7cxa0IECBAgAABAgQIENgREM47zj99inD+6flcngABAgQIECBAgACBlwLC+SXgDZ8L5xtW9kYCBAgQIECAAAECBP4SEM7+Nj4KCOePRP4BAQIECBAgQIAAAQLFAsK5eNxvPU04f0vS7xAgQIAAAQIECBAg8IsCwvkXV1u+s3BeBnccAQIECBAgQIAAAQJRAsI5ao7MywjnzF3cigABAgQIECBAgACBHQHhvOP806cI55+ez+UJECBAgAABAgQIEHgpIJxfAt7wuXC+YWVvJECAAAECBAgQIEDgLwHh7G/jo4Bw/kjkHxAgQIAAAQIECBAgUCwgnIvH/dbThPO3JP0OAQIECBAgQIAAAQK/KCCcf3G15TsL52VwxxEgQIAAAQIECBAgECUgnKPmyLyMcM7cxa0IECBAgAABAgQIENgREM47zj99inD+6flcngABAgQIECBAgACBlwLC+SXgDZ8L5xtW9kYCBAgQIECAAAECBP4SEM7+Nj4KCOePRP4BAQIECBAgQIAAAQLFAsK5eNxvPU04f0vS7xAgQIAAAQIECBAg8IsCwvkXV1u+s3BeBnccAQIECBAgQIAAAQJRAsI5ao7MywjnzF3cigABAgQIECBAgACBHQHhvOP806cI55+ez+UJECBAgAABAgQIEHgpIJxfAt7wuXC+YWVvJECAAAECBAgQIEDgLwHh7G/jo4Bw/kjkHxAgQIAAAQIECBAgUCwgnIvH/dbThPO3JP0OAQIECBAgQIAAAQK/KCCcf3G15TsL52VwxxEgQIAAAQIECBAgECUgnKPmyLyMcM7cxa0IECBAgAABAgQIENgREM47zj99inD+6flcngABAgQIECBAgACBlwLC+SXgDZ8L5xtW9kYCBAgQIECAAAECBP4SEM7+Nj4KCOePRP4BAQIECBAgQIAAAQLFAsK5eNxvPU04f0vS7xAgQIAAAQIECBAg8IsCwvkXV1u+s3BeBnccAQIECBAgQIAAAQJRAsI5ao7MywjnzF3cigABAgQIECBAgACBHQHhvOP806cI55+ez+UJECBAgAABAgQIEHgpIJxfAt7wuXC+YWVvJECAAAECBAgQIEDgLwHh7G/jo4Bw/kjkHxAgQIAAAQIECBAgUCwgnIvH/dbThPO3JP0OAQIECBAgQIAAAQK/KCCcf3G15TsL52VwxxEgQIAAAQIECBAgECUgnKPmyLyMcM7cxa0IECBAgAABAgQIENgREM47zj99inD+6flcngABAgQIECBAgACBlwLC+SXgDZ8L5xtW9kYCBAgQIECAAAECBP4SEM7+Nj4KCOePRP4BAQIECBAgQIAAAQLFAsK5eNxvPU04f0vS7xAgQIAAAQIECBAg8IsCwvkXV1u+s3BeBnccAQIECBAgQIAAAQJRAsI5ao7MywjnzF3cigABAgQIECBAgACBHQHhvOP806cI55+ez+UJECBAgAABAgQIEHgpIJxfAt7wuXC+YWVvJECAAAECBAgQIEDgLwHh7G/jo4Bw/kjkHxAgQIAAAQIECBAgUCwgnIvH/dbThPO3JP0OAQIECBAgQIAAAQK/KCCcf3G15TsL52VwxxEgQIAAAQIECBAgECUgnKPmyLyMcM7cxa0IECBAgAABAgQIENgREM47zj99inD+6flcngABAgQIECBAgACBlwLC+SXgDZ8L5xtW9kYCBAgQIECAAAECBP4SEM7+Nj4KCOePRP4BAQIECBAgQIAAAQLFAsK5eNxvPU04f0vS7xAgQIAAAQIECBAg8IsCwvkXV1u+s3BeBnccAQIECBAgQIAAAQJRAsI5ao7MywjnzF3cigABAgQIECBAgACBHQHhvOP806cI55+ez+UJECBAgAABAgQIEHgpIJxfAt7wuXC+YWVvJECAAAECBAgQIEDgLwHh7G/jo4Bw/kjkHxAgQIAAAQIECBAgUCwgnIvH/dbThPO3JP0OAQIECBAgQIAAAQK/KCCcf3G15TsL52VwxxEgQIAAAQIECBAgECUgnKPmyLyMcM7cxa0IECBAgAABAgQIENgREM47zj99inD+6flcngABAgQIECBAgACBlwLC+SXgDZ8L5xtW9kYCBAgQIECAAAECBP4SEM7+Nj4KCOePRP4BAQIECBAgQIAAAQLFAsK5eNxvPU04f0vS7xAgQIAAAQIECBAg8IsCwvkXV1u+s3BeBnccAQIECBAgQIAAAQJRAsI5ao7MywjnzF3cigABAgQIECBAgACBHQHhvOP806cI55+ez+UJECBAgAABAgQIEHgpIJxfAt7wuXC+YWVvJECAAAECBAgQIEDgLwHh7G/jo4Bw/kjkHxAgQIAAAQIECBAgUCwgnIvH/dbThPO3JP0OAQIECBAgQIAAAQK/KCCcf3G15TsL52VwxxEgQIAAAQIECBAgECUgnKPmyLyMcM7cxa0IECBAgAABAgQIENgREM47zj99inD+6flcngABAgQIECBAgACBlwLC+SXgDZ8L5xtW9kYCBAgQIECAAAECBP4SEM7+Nj4KCOePRP4BAQIECBAgQIAAAQLFAsK5eNxvPU04f0vS7xAgQIAAAQIECBAg8IsCwvkXV1u+s3BeBnccAQIECBAgQIAAAQJRAsI5ao7MywjnzF3cigABAgQIECBAgACBHQHhvOP806cI55+ez+UJECBAgAABAgQIEHgpIJxfAt7wuXC+YWVvJECAAAECBAgQIEDgLwHh7G/jo4Bw/kjkHxAgQIAAAQIECBAgUCwgnIvH/dbThPO3JP0OAQIECBAgQIAAAQK/KCCcf3G15TsL52VwxxEgQIAAAQIECBAgECUgnKPmyLyMcM7cxa0IECBAgAABAgQIENgREM47zj99inD+6flcngABAgQIECBAgACBlwLC+SXgDZ8L5xtW9kYCBAgQIECAAAECBP4SGAln3AQIECBAgAABAgQIECBAoEVAOLcs6R0ECBAgQIAAAQIECBAgMCIgnEdY/SgBAgQIECBAgAABAgQItAgI55YlvYMAAQIECMvuQoMAAAE0SURBVBAgQIAAAQIERgSE8wirHyVAgAABAgQIECBAgACBFgHh3LKkdxAgQIAAAQIECBAgQIDAiIBwHmH1owQIECBAgAABAgQIECDQIiCcW5b0DgIECBAgQIAAAQIECBAYERDOI6x+lAABAgQIECBAgAABAgRaBIRzy5LeQYAAAQIECBAgQIAAAQIjAsJ5hNWPEiBAgAABAgQIECBAgECLgHBuWdI7CBAgQIAAAQIECBAgQGBEQDiPsPpRAgQIECBAgAABAgQIEGgREM4tS3oHAQIECBAgQIAAAQIECIwICOcRVj9KgAABAgQIECBAgAABAi0CwrllSe8gQIAAAQIECBAgQIAAgREB4TzC6kcJECBAgAABAgQIECBAoEVAOLcs6R0ECBAgQIAAAQIECBAgMCLwvwEAYhzj+uRkOQAAAABJRU5ErkJggg==;movable=0;resizable=0;rotatable=0;deletable=0;editable=0;locked=1;connectable=0;" parent="1" vertex="1">
          <mxGeometry x="-60" y="30" width="974" height="607" as="geometry" />
        </mxCell>
        <mxCell id="RoqFsiGsxQyyz9BpnN4m-2" value="START" style="text;html=1;strokeColor=none;fillColor=none;align=center;verticalAlign=middle;whiteSpace=wrap;rounded=0;fontSize=19;fontColor=#FFFFFF;" parent="1" vertex="1">
          <mxGeometry x="-10" y="550" width="60" height="30" as="geometry" />
        </mxCell>
        <mxCell id="RoqFsiGsxQyyz9BpnN4m-3" value="END" style="text;html=1;strokeColor=none;fillColor=none;align=center;verticalAlign=middle;whiteSpace=wrap;rounded=0;fontSize=19;fontColor=#FFFFFF;" parent="1" vertex="1">
          <mxGeometry x="802" y="82" width="60" height="30" as="geometry" />
        </mxCell>
        <mxCell id="RoqFsiGsxQyyz9BpnN4m-4" value="#DETOUR" style="text;html=1;strokeColor=none;fillColor=none;align=center;verticalAlign=middle;whiteSpace=wrap;rounded=0;fontSize=19;fontColor=#FFFFFF;" parent="1" vertex="1">
          <mxGeometry x="450" y="196" width="60" height="30" as="geometry" />
        </mxCell>
        <mxCell id="RoqFsiGsxQyyz9BpnN4m-6" value="" style="endArrow=classic;html=1;rounded=0;fillColor=#fff2cc;strokeColor=#d6b656;strokeWidth=3;" parent="1" edge="1">
          <mxGeometry width="50" height="50" relative="1" as="geometry">
            <mxPoint x="70" y="510" as="sourcePoint" />
            <mxPoint x="480" y="100" as="targetPoint" />
          </mxGeometry>
        </mxCell>
        <mxCell id="78oQDM9ux0ZvB62cLCe_-1" value="#VIRTUAL" style="text;html=1;strokeColor=none;fillColor=none;align=center;verticalAlign=middle;whiteSpace=wrap;rounded=0;fontSize=14;fontColor=#FFFFFF;strokeWidth=0;" vertex="1" parent="1">
          <mxGeometry x="320" y="154" width="60" height="30" as="geometry" />
        </mxCell>
        <mxCell id="78oQDM9ux0ZvB62cLCe_-2" value="#JUMP_POINT" style="text;html=1;strokeColor=none;fillColor=none;align=center;verticalAlign=middle;whiteSpace=wrap;rounded=0;fontSize=14;fontColor=#FFFFFF;strokeWidth=0;" vertex="1" parent="1">
          <mxGeometry x="220" y="270" width="60" height="30" as="geometry" />
        </mxCell>
        <mxCell id="78oQDM9ux0ZvB62cLCe_-3" value="#VIRTUAL" style="text;html=1;strokeColor=none;fillColor=none;align=center;verticalAlign=middle;whiteSpace=wrap;rounded=0;fontSize=14;fontColor=#FFFFFF;strokeWidth=0;" vertex="1" parent="1">
          <mxGeometry x="90" y="390" width="60" height="30" as="geometry" />
        </mxCell>
        <mxCell id="78oQDM9ux0ZvB62cLCe_-4" value="#VIRTUAL" style="text;html=1;strokeColor=none;fillColor=none;align=center;verticalAlign=middle;whiteSpace=wrap;rounded=0;fontSize=14;fontColor=#FFFFFF;strokeWidth=0;" vertex="1" parent="1">
          <mxGeometry x="550" y="40" width="60" height="30" as="geometry" />
        </mxCell>
        <mxCell id="78oQDM9ux0ZvB62cLCe_-5" value="#VIRTUAL" style="text;html=1;strokeColor=none;fillColor=none;align=center;verticalAlign=middle;whiteSpace=wrap;rounded=0;fontSize=14;fontColor=#FFFFFF;strokeWidth=0;" vertex="1" parent="1">
          <mxGeometry x="680" y="40" width="60" height="30" as="geometry" />
        </mxCell>
        <mxCell id="78oQDM9ux0ZvB62cLCe_-6" value="#JUMP_POINT" style="text;html=1;strokeColor=none;fillColor=none;align=center;verticalAlign=middle;whiteSpace=wrap;rounded=0;fontSize=14;fontColor=#FFFFFF;strokeWidth=0;" vertex="1" parent="1">
          <mxGeometry x="450" y="40" width="60" height="30" as="geometry" />
        </mxCell>
        <mxCell id="78oQDM9ux0ZvB62cLCe_-7" value="#JUMP_POINT" style="text;html=1;strokeColor=none;fillColor=none;align=center;verticalAlign=middle;whiteSpace=wrap;rounded=0;fontSize=14;fontColor=#FFFFFF;strokeWidth=0;" vertex="1" parent="1">
          <mxGeometry x="802" y="40" width="60" height="30" as="geometry" />
        </mxCell>
        <mxCell id="78oQDM9ux0ZvB62cLCe_-8" value="#JUMP_POINT" style="text;html=1;strokeColor=none;fillColor=none;align=center;verticalAlign=middle;whiteSpace=wrap;rounded=0;fontSize=14;fontColor=#FFFFFF;strokeWidth=0;" vertex="1" parent="1">
          <mxGeometry x="219" y="41" width="60" height="30" as="geometry" />
        </mxCell>
        <mxCell id="78oQDM9ux0ZvB62cLCe_-9" value="@SomeBottle" style="text;html=1;strokeColor=none;fillColor=none;align=center;verticalAlign=middle;whiteSpace=wrap;rounded=0;fontSize=14;textOpacity=60;" vertex="1" parent="1">
          <mxGeometry x="840" y="607" width="60" height="30" as="geometry" />
        </mxCell>
      </root>
    </mxGraphModel>
  </diagram>
</mxfile>
